<svg id="Capa_1" data-name="Capa 1" xmlns="http://www.w3.org/2000/svg" viewBox="0 0 16.84 24.18"><defs><style>.cls-1{fill:#33a854;}.cls-2{fill:#fbbc0b;}.cls-3{fill:#527cbe;}.cls-4{fill:#e84536;}.cls-5{fill:#396cb3;}</style></defs><path class="cls-1" d="M529.88,468.32h-.45a1.26,1.26,0,0,1-.61-.83c0-.1-.07-.2-.1-.3a12.45,12.45,0,0,0-1.86-3.8l-1-1.34L526,462l1.39-1.66,3.92-4.66a1.69,1.69,0,0,0,.39-.53h0s0,0,0,0h0c.07,0,.09-.07.12-.12a5.85,5.85,0,0,0,.67-.82,1.45,1.45,0,0,0,.38-.4l1.49-1.77,1.46-1.75,1.29-1.53.09.15a8.58,8.58,0,0,1,.85,3.15v1.24a10,10,0,0,1-2.24,5.73c-1,1.42-2.19,2.74-3.2,4.17a14,14,0,0,0-1.54,2.68c-.24.58-.41,1.18-.62,1.77A1.09,1.09,0,0,1,529.88,468.32Z" transform="translate(-521.23 -444.14)"/><path class="cls-2" d="M525.9,462.05l-.91-1.14a32.88,32.88,0,0,1-2.14-2.87,8.89,8.89,0,0,1-.78-1.46L524,454.3c.82-1,1.64-2,2.47-2.95.1-.11.16-.27.33-.32s0,.1,0,.15a3.23,3.23,0,0,0,4.45,4.23l.47-.29a1.69,1.69,0,0,1-.39.53l-3.92,4.66L526,462Z" transform="translate(-521.23 -444.14)"/><path class="cls-3" d="M532.21,444.55a7.6,7.6,0,0,1,2,.92,8.46,8.46,0,0,1,2.89,3.11l0,.12-1.29,1.53L534.38,452l-1.49,1.77a1.45,1.45,0,0,1-.38.4c-.06,0,0-.07,0-.1a3.13,3.13,0,0,0-.33-3.44,3.09,3.09,0,0,0-3.16-1.19,3.38,3.38,0,0,0-1.57.78c0-.1.07-.15.12-.21l1.41-1.68,1.24-1.47,1.24-1.46C531.72,445.11,531.94,444.81,532.21,444.55Z" transform="translate(-521.23 -444.14)"/><path class="cls-4" d="M527.17,450.48a1.31,1.31,0,0,1-.26.37s-.07,0-.07.11h0a.06.06,0,0,0-.05.08h0c-.17.05-.23.21-.33.32-.83,1-1.65,2-2.47,2.95l-1.94,2.28a9.38,9.38,0,0,1-.31-6.95,8.23,8.23,0,0,1,1.39-2.4.46.46,0,0,1,.07-.07l.77.66c.77.65,1.54,1.31,2.32,1.95A9.52,9.52,0,0,0,527.17,450.48Z" transform="translate(-521.23 -444.14)"/><path class="cls-5" d="M527.17,450.48a9.52,9.52,0,0,1-.86-.71c-.78-.64-1.55-1.3-2.32-1.95l-.77-.66a6.88,6.88,0,0,1,1.44-1.36,8.32,8.32,0,0,1,7.36-1.32l.19.07c-.27.26-.49.56-.73.83l-1.24,1.46L529,448.31,527.59,450c-.05.06-.12.11-.12.21A1.61,1.61,0,0,1,527.17,450.48Z" transform="translate(-521.23 -444.14)"/></svg>